<svg width="264" height="44" viewBox="0 0 264 44" fill="none" xmlns="http://www.w3.org/2000/svg">
<path d="M31.6352 16.1354L29.0954 18.6633L23.2636 12.8041L23.2391 37.1798L19.6558 37.1762L19.6802 12.8672L13.8927 18.6277L11.3648 16.088L21.5237 5.97656L31.6352 16.1354Z" fill="#FF87B0"/>
<path d="M243.549 18.7285H247.943C248.084 19.8887 248.682 20.8262 249.736 21.541C250.791 22.2441 252.098 22.5957 253.656 22.5957C255.18 22.5957 256.422 22.2559 257.383 21.5762C258.355 20.8965 258.842 20.0293 258.842 18.9746C258.842 18.0605 258.49 17.3223 257.787 16.7598C257.084 16.1855 255.936 15.7109 254.342 15.3359L251.055 14.5625C248.723 14.0234 246.988 13.1855 245.852 12.0488C244.727 10.9121 244.164 9.43555 244.164 7.61914C244.164 5.38086 245.043 3.56445 246.801 2.16992C248.559 0.775391 250.826 0.078125 253.604 0.078125C256.393 0.078125 258.637 0.769531 260.336 2.15234C262.047 3.52344 262.932 5.32812 262.99 7.56641H258.666C258.561 6.38281 258.051 5.45703 257.137 4.78906C256.223 4.10938 255.033 3.76953 253.568 3.76953C252.139 3.76953 250.979 4.0918 250.088 4.73633C249.209 5.38086 248.77 6.23047 248.77 7.28516C248.77 8.12891 249.109 8.81445 249.789 9.3418C250.48 9.86914 251.605 10.3203 253.164 10.6953L256.082 11.3633C258.648 11.9492 260.512 12.8047 261.672 13.9297C262.832 15.0547 263.412 16.5605 263.412 18.4473C263.412 20.8496 262.51 22.7598 260.705 24.1777C258.912 25.584 256.48 26.2871 253.41 26.2871C250.48 26.2871 248.125 25.6133 246.344 24.2656C244.574 22.9062 243.643 21.0605 243.549 18.7285Z" fill="#7C76BB"/>
<path d="M221.295 18.7285H225.689C225.83 19.8887 226.428 20.8262 227.482 21.541C228.537 22.2441 229.844 22.5957 231.402 22.5957C232.926 22.5957 234.168 22.2559 235.129 21.5762C236.102 20.8965 236.588 20.0293 236.588 18.9746C236.588 18.0605 236.236 17.3223 235.533 16.7598C234.83 16.1855 233.682 15.7109 232.088 15.3359L228.801 14.5625C226.469 14.0234 224.734 13.1855 223.598 12.0488C222.473 10.9121 221.91 9.43555 221.91 7.61914C221.91 5.38086 222.789 3.56445 224.547 2.16992C226.305 0.775391 228.572 0.078125 231.35 0.078125C234.139 0.078125 236.383 0.769531 238.082 2.15234C239.793 3.52344 240.678 5.32812 240.736 7.56641H236.412C236.307 6.38281 235.797 5.45703 234.883 4.78906C233.969 4.10938 232.779 3.76953 231.314 3.76953C229.885 3.76953 228.725 4.0918 227.834 4.73633C226.955 5.38086 226.516 6.23047 226.516 7.28516C226.516 8.12891 226.855 8.81445 227.535 9.3418C228.227 9.86914 229.352 10.3203 230.91 10.6953L233.828 11.3633C236.395 11.9492 238.258 12.8047 239.418 13.9297C240.578 15.0547 241.158 16.5605 241.158 18.4473C241.158 20.8496 240.256 22.7598 238.451 24.1777C236.658 25.584 234.227 26.2871 231.156 26.2871C228.227 26.2871 225.871 25.6133 224.09 24.2656C222.32 22.9062 221.389 21.0605 221.295 18.7285Z" fill="#7C76BB"/>
<path d="M218.395 22.0332V25.8652H201.977V0.5H218.395V4.33203H206.512V11.1875H217.744V14.791H206.512V22.0332H218.395Z" fill="#7C76BB"/>
<path d="M180.83 25.8652H176.453V0.5H180.391L192.977 18.2715H193.135V0.5H197.494V25.8652H193.592L180.988 8.07617H180.83V25.8652Z" fill="#7C76BB"/>
<path d="M171.988 25.8652H167.453V0.5H171.988V25.8652Z" fill="#7C76BB"/>
<path d="M144.162 18.7285H148.557C148.697 19.8887 149.295 20.8262 150.35 21.541C151.404 22.2441 152.711 22.5957 154.27 22.5957C155.793 22.5957 157.035 22.2559 157.996 21.5762C158.969 20.8965 159.455 20.0293 159.455 18.9746C159.455 18.0605 159.104 17.3223 158.4 16.7598C157.697 16.1855 156.549 15.7109 154.955 15.3359L151.668 14.5625C149.336 14.0234 147.602 13.1855 146.465 12.0488C145.34 10.9121 144.777 9.43555 144.777 7.61914C144.777 5.38086 145.656 3.56445 147.414 2.16992C149.172 0.775391 151.439 0.078125 154.217 0.078125C157.006 0.078125 159.25 0.769531 160.949 2.15234C162.66 3.52344 163.545 5.32812 163.604 7.56641H159.279C159.174 6.38281 158.664 5.45703 157.75 4.78906C156.836 4.10938 155.646 3.76953 154.182 3.76953C152.752 3.76953 151.592 4.0918 150.701 4.73633C149.822 5.38086 149.383 6.23047 149.383 7.28516C149.383 8.12891 149.723 8.81445 150.402 9.3418C151.094 9.86914 152.219 10.3203 153.777 10.6953L156.695 11.3633C159.262 11.9492 161.125 12.8047 162.285 13.9297C163.445 15.0547 164.025 16.5605 164.025 18.4473C164.025 20.8496 163.123 22.7598 161.318 24.1777C159.525 25.584 157.094 26.2871 154.023 26.2871C151.094 26.2871 148.738 25.6133 146.957 24.2656C145.188 22.9062 144.256 21.0605 144.162 18.7285Z" fill="#7C76BB"/>
<path d="M124.387 0.5V16.5137C124.387 18.2715 124.902 19.6836 125.934 20.75C126.977 21.8047 128.424 22.332 130.275 22.332C132.127 22.332 133.574 21.8047 134.617 20.75C135.66 19.6836 136.182 18.2715 136.182 16.5137V0.5H140.699V16.918C140.699 19.7188 139.756 21.9805 137.869 23.7031C135.994 25.4258 133.463 26.2871 130.275 26.2871C127.1 26.2871 124.568 25.4258 122.682 23.7031C120.795 21.9805 119.852 19.7188 119.852 16.918V0.5H124.387Z" fill="#7C76BB"/>
<path d="M107.916 25.8652H97.2812V0.5H107.811C110.119 0.5 111.959 1.07422 113.33 2.22266C114.701 3.37109 115.387 4.90625 115.387 6.82812C115.387 8.1875 114.941 9.39453 114.051 10.4492C113.16 11.5039 112.064 12.1367 110.764 12.3477V12.4883C112.498 12.6523 113.904 13.3027 114.982 14.4395C116.072 15.5762 116.617 16.9824 116.617 18.6582C116.617 20.8965 115.844 22.6602 114.297 23.9492C112.75 25.2266 110.623 25.8652 107.916 25.8652ZM101.816 4.0332V11.1875H105.965C107.547 11.1875 108.766 10.8711 109.621 10.2383C110.477 9.59375 110.904 8.67969 110.904 7.49609C110.904 6.39453 110.535 5.54492 109.797 4.94727C109.07 4.33789 108.027 4.0332 106.668 4.0332H101.816ZM101.816 22.332H106.879C108.543 22.332 109.809 21.9922 110.676 21.3125C111.555 20.6328 111.994 19.6426 111.994 18.3418C111.994 17.0527 111.543 16.0742 110.641 15.4062C109.75 14.7383 108.432 14.4043 106.686 14.4043H101.816V22.332Z" fill="#7C76BB"/>
<path d="M68.3477 0.5H78.209C80.7402 0.5 82.7969 1.28516 84.3789 2.85547C85.9609 4.41406 86.752 6.45898 86.752 8.99023C86.752 11.5098 85.9375 13.5547 84.3086 15.125C82.6914 16.6953 80.5938 17.4805 78.0156 17.4805H72.8828V25.8652H68.3477V0.5ZM72.8828 4.20898V13.8242H76.9961C78.625 13.8242 79.8906 13.4023 80.793 12.5586C81.6953 11.7148 82.1465 10.5254 82.1465 8.99023C82.1465 7.4668 81.6953 6.28906 80.793 5.45703C79.9023 4.625 78.6426 4.20898 77.0137 4.20898H72.8828Z" fill="#7C76BB"/>
<path d="M47.5352 0.5V16.5137C47.5352 18.2715 48.0508 19.6836 49.082 20.75C50.125 21.8047 51.5723 22.332 53.4238 22.332C55.2754 22.332 56.7227 21.8047 57.7656 20.75C58.8086 19.6836 59.3301 18.2715 59.3301 16.5137V0.5H63.8477V16.918C63.8477 19.7188 62.9043 21.9805 61.0176 23.7031C59.1426 25.4258 56.6113 26.2871 53.4238 26.2871C50.248 26.2871 47.7168 25.4258 45.8301 23.7031C43.9434 21.9805 43 19.7188 43 16.918V0.5H47.5352Z" fill="#7C76BB"/>
</svg>
